<svg xmlns="http://www.w3.org/2000/svg" viewBox="0 0 100 100" preserveAspectRatio="xMidYMid" width="200" height="200" style="shape-rendering: auto; display: block; background: transparent;" xmlns:xlink="http://www.w3.org/1999/xlink"><g><g transform="rotate(0 50 50)">
  <rect fill="#f5b70f" height="12" width="4" ry="6" rx="2" y="24" x="48">
    <animate repeatCount="indefinite" begin="-2.217294900221729s" dur="2.4390243902439024s" keyTimes="0;1" values="1;0" attributeName="opacity"></animate>
  </rect>
</g><g transform="rotate(32.72727272727273 50 50)">
  <rect fill="#f5b70f" height="12" width="4" ry="6" rx="2" y="24" x="48">
    <animate repeatCount="indefinite" begin="-1.9955654101995561s" dur="2.4390243902439024s" keyTimes="0;1" values="1;0" attributeName="opacity"></animate>
  </rect>
</g><g transform="rotate(65.45454545454545 50 50)">
  <rect fill="#f5b70f" height="12" width="4" ry="6" rx="2" y="24" x="48">
    <animate repeatCount="indefinite" begin="-1.7738359201773832s" dur="2.4390243902439024s" keyTimes="0;1" values="1;0" attributeName="opacity"></animate>
  </rect>
</g><g transform="rotate(98.18181818181819 50 50)">
  <rect fill="#f5b70f" height="12" width="4" ry="6" rx="2" y="24" x="48">
    <animate repeatCount="indefinite" begin="-1.5521064301552103s" dur="2.4390243902439024s" keyTimes="0;1" values="1;0" attributeName="opacity"></animate>
  </rect>
</g><g transform="rotate(130.9090909090909 50 50)">
  <rect fill="#f5b70f" height="12" width="4" ry="6" rx="2" y="24" x="48">
    <animate repeatCount="indefinite" begin="-1.3303769401330374s" dur="2.4390243902439024s" keyTimes="0;1" values="1;0" attributeName="opacity"></animate>
  </rect>
</g><g transform="rotate(163.63636363636363 50 50)">
  <rect fill="#f5b70f" height="12" width="4" ry="6" rx="2" y="24" x="48">
    <animate repeatCount="indefinite" begin="-1.1086474501108645s" dur="2.4390243902439024s" keyTimes="0;1" values="1;0" attributeName="opacity"></animate>
  </rect>
</g><g transform="rotate(196.36363636363637 50 50)">
  <rect fill="#f5b70f" height="12" width="4" ry="6" rx="2" y="24" x="48">
    <animate repeatCount="indefinite" begin="-0.8869179600886916s" dur="2.4390243902439024s" keyTimes="0;1" values="1;0" attributeName="opacity"></animate>
  </rect>
</g><g transform="rotate(229.0909090909091 50 50)">
  <rect fill="#f5b70f" height="12" width="4" ry="6" rx="2" y="24" x="48">
    <animate repeatCount="indefinite" begin="-0.6651884700665187s" dur="2.4390243902439024s" keyTimes="0;1" values="1;0" attributeName="opacity"></animate>
  </rect>
</g><g transform="rotate(261.8181818181818 50 50)">
  <rect fill="#f5b70f" height="12" width="4" ry="6" rx="2" y="24" x="48">
    <animate repeatCount="indefinite" begin="-0.4434589800443458s" dur="2.4390243902439024s" keyTimes="0;1" values="1;0" attributeName="opacity"></animate>
  </rect>
</g><g transform="rotate(294.54545454545456 50 50)">
  <rect fill="#f5b70f" height="12" width="4" ry="6" rx="2" y="24" x="48">
    <animate repeatCount="indefinite" begin="-0.2217294900221729s" dur="2.4390243902439024s" keyTimes="0;1" values="1;0" attributeName="opacity"></animate>
  </rect>
</g><g transform="rotate(327.27272727272725 50 50)">
  <rect fill="#f5b70f" height="12" width="4" ry="6" rx="2" y="24" x="48">
    <animate repeatCount="indefinite" begin="0s" dur="2.4390243902439024s" keyTimes="0;1" values="1;0" attributeName="opacity"></animate>
  </rect>
</g><g></g></g><!-- [ldio] generated by https://loading.io --></svg>